<mxfile host="app.diagrams.net" modified="2021-09-21T14:20:56.404Z" agent="5.0 (Macintosh; Intel Mac OS X 10_15_7) AppleWebKit/537.36 (KHTML, like Gecko) Chrome/93.0.4577.82 Safari/537.36" etag="fu5OL1Y26AwOlflLpFEq" version="15.2.9" type="github">
  <diagram id="i8BBmoVCbR3twZk0MIFW" name="第 1 页">
    <mxGraphModel dx="946" dy="535" grid="1" gridSize="10" guides="1" tooltips="1" connect="1" arrows="1" fold="1" page="1" pageScale="1" pageWidth="827" pageHeight="1169" math="0" shadow="0">
      <root>
        <mxCell id="0" />
        <mxCell id="1" parent="0" />
        <mxCell id="tBsddaOHQsh0faRVIh5W-1" value="" style="rounded=0;whiteSpace=wrap;html=1;" vertex="1" parent="1">
          <mxGeometry x="80" y="60" width="60" height="50" as="geometry" />
        </mxCell>
        <mxCell id="tBsddaOHQsh0faRVIh5W-5" value="" style="rounded=0;whiteSpace=wrap;html=1;" vertex="1" parent="1">
          <mxGeometry x="550" y="60" width="60" height="50" as="geometry" />
        </mxCell>
        <mxCell id="tBsddaOHQsh0faRVIh5W-6" value="" style="rounded=0;whiteSpace=wrap;html=1;" vertex="1" parent="1">
          <mxGeometry x="200" y="60" width="60" height="50" as="geometry" />
        </mxCell>
        <mxCell id="tBsddaOHQsh0faRVIh5W-7" value="" style="rounded=0;whiteSpace=wrap;html=1;" vertex="1" parent="1">
          <mxGeometry x="310" y="60" width="60" height="50" as="geometry" />
        </mxCell>
        <mxCell id="tBsddaOHQsh0faRVIh5W-8" value="" style="rounded=0;whiteSpace=wrap;html=1;" vertex="1" parent="1">
          <mxGeometry x="430" y="60" width="60" height="50" as="geometry" />
        </mxCell>
        <mxCell id="tBsddaOHQsh0faRVIh5W-14" value="" style="rounded=0;whiteSpace=wrap;html=1;" vertex="1" parent="1">
          <mxGeometry x="80" y="140" width="60" height="50" as="geometry" />
        </mxCell>
        <mxCell id="tBsddaOHQsh0faRVIh5W-15" value="" style="rounded=0;whiteSpace=wrap;html=1;" vertex="1" parent="1">
          <mxGeometry x="550" y="140" width="60" height="50" as="geometry" />
        </mxCell>
        <mxCell id="tBsddaOHQsh0faRVIh5W-16" value="" style="rounded=0;whiteSpace=wrap;html=1;" vertex="1" parent="1">
          <mxGeometry x="200" y="140" width="60" height="50" as="geometry" />
        </mxCell>
        <mxCell id="tBsddaOHQsh0faRVIh5W-17" value="" style="rounded=0;whiteSpace=wrap;html=1;" vertex="1" parent="1">
          <mxGeometry x="310" y="140" width="60" height="50" as="geometry" />
        </mxCell>
        <mxCell id="tBsddaOHQsh0faRVIh5W-18" value="" style="rounded=0;whiteSpace=wrap;html=1;" vertex="1" parent="1">
          <mxGeometry x="430" y="140" width="60" height="50" as="geometry" />
        </mxCell>
        <mxCell id="tBsddaOHQsh0faRVIh5W-19" value="" style="rounded=0;whiteSpace=wrap;html=1;" vertex="1" parent="1">
          <mxGeometry x="80" y="210" width="60" height="50" as="geometry" />
        </mxCell>
        <mxCell id="tBsddaOHQsh0faRVIh5W-20" value="" style="rounded=0;whiteSpace=wrap;html=1;" vertex="1" parent="1">
          <mxGeometry x="550" y="210" width="60" height="50" as="geometry" />
        </mxCell>
        <mxCell id="tBsddaOHQsh0faRVIh5W-21" value="" style="rounded=0;whiteSpace=wrap;html=1;" vertex="1" parent="1">
          <mxGeometry x="200" y="210" width="60" height="50" as="geometry" />
        </mxCell>
        <mxCell id="tBsddaOHQsh0faRVIh5W-22" value="" style="rounded=0;whiteSpace=wrap;html=1;" vertex="1" parent="1">
          <mxGeometry x="310" y="210" width="60" height="50" as="geometry" />
        </mxCell>
        <mxCell id="tBsddaOHQsh0faRVIh5W-23" value="" style="rounded=0;whiteSpace=wrap;html=1;" vertex="1" parent="1">
          <mxGeometry x="430" y="210" width="60" height="50" as="geometry" />
        </mxCell>
      </root>
    </mxGraphModel>
  </diagram>
</mxfile>
